<mxfile host="app.diagrams.net" modified="2024-05-27T19:43:07.266Z" agent="Mozilla/5.0 (X11; Linux x86_64) AppleWebKit/537.36 (KHTML, like Gecko) Chrome/125.0.0.0 Safari/537.36" etag="X6-9CPjxFbbm5ewgJZ7W" version="24.4.8" type="device">
  <diagram id="C5RBs43oDa-KdzZeNtuy" name="Page-1">
    <mxGraphModel dx="1687" dy="2105" grid="1" gridSize="10" guides="1" tooltips="1" connect="1" arrows="1" fold="1" page="1" pageScale="1" pageWidth="827" pageHeight="1169" math="0" shadow="0">
      <root>
        <mxCell id="WIyWlLk6GJQsqaUBKTNV-0" />
        <mxCell id="WIyWlLk6GJQsqaUBKTNV-1" parent="WIyWlLk6GJQsqaUBKTNV-0" />
        <mxCell id="S7_N-UKr1pL8a_zZHFVc-5" value="calculate(&lt;span style=&quot;background-color: initial;&quot;&gt;A, current,&amp;nbsp;&lt;/span&gt;&lt;span style=&quot;background-color: initial;&quot;&gt;used, depth, K,&amp;nbsp;&lt;/span&gt;&lt;span style=&quot;background-color: initial;&quot;&gt;result, call_count&lt;/span&gt;&lt;span style=&quot;background-color: initial;&quot;&gt;)&lt;/span&gt;" style="strokeWidth=2;html=1;shape=mxgraph.flowchart.terminator;whiteSpace=wrap;" parent="WIyWlLk6GJQsqaUBKTNV-1" vertex="1">
          <mxGeometry x="330" y="-600" width="160" height="60" as="geometry" />
        </mxCell>
        <mxCell id="SRNSHd6ge_EsEEtdElFu-7" value="" style="edgeStyle=orthogonalEdgeStyle;rounded=0;orthogonalLoop=1;jettySize=auto;html=1;" parent="WIyWlLk6GJQsqaUBKTNV-1" edge="1">
          <mxGeometry relative="1" as="geometry">
            <mxPoint x="410.0434782608695" y="-540" as="sourcePoint" />
            <mxPoint x="410.0588235294117" y="-510" as="targetPoint" />
          </mxGeometry>
        </mxCell>
        <mxCell id="SRNSHd6ge_EsEEtdElFu-37" style="edgeStyle=orthogonalEdgeStyle;rounded=0;orthogonalLoop=1;jettySize=auto;html=1;entryX=0.5;entryY=0;entryDx=0;entryDy=0;" parent="WIyWlLk6GJQsqaUBKTNV-1" edge="1">
          <mxGeometry relative="1" as="geometry">
            <Array as="points">
              <mxPoint x="800" y="-390" />
              <mxPoint x="800" y="640" />
              <mxPoint x="410" y="640" />
            </Array>
            <mxPoint x="410" y="670" as="targetPoint" />
          </mxGeometry>
        </mxCell>
        <mxCell id="SRNSHd6ge_EsEEtdElFu-24" style="edgeStyle=orthogonalEdgeStyle;rounded=0;orthogonalLoop=1;jettySize=auto;html=1;entryX=0.5;entryY=0;entryDx=0;entryDy=0;" parent="WIyWlLk6GJQsqaUBKTNV-1" edge="1">
          <mxGeometry relative="1" as="geometry">
            <Array as="points">
              <mxPoint x="600" y="-30" />
              <mxPoint x="600" y="110" />
              <mxPoint x="410" y="110" />
            </Array>
            <mxPoint x="510" y="-29.947368421052488" as="sourcePoint" />
          </mxGeometry>
        </mxCell>
        <mxCell id="SRNSHd6ge_EsEEtdElFu-38" style="edgeStyle=orthogonalEdgeStyle;rounded=0;orthogonalLoop=1;jettySize=auto;html=1;entryX=0;entryY=0.5;entryDx=0;entryDy=0;entryPerimeter=0;exitX=0;exitY=0.5;exitDx=0;exitDy=0;" parent="WIyWlLk6GJQsqaUBKTNV-1" edge="1">
          <mxGeometry relative="1" as="geometry">
            <Array as="points">
              <mxPoint x="150" y="590" />
              <mxPoint x="150" y="-390" />
            </Array>
            <mxPoint x="310" y="-390" as="targetPoint" />
          </mxGeometry>
        </mxCell>
        <mxCell id="gohF25LUEKTXvDDzDyy9-20" value="Возврат" style="strokeWidth=2;html=1;shape=mxgraph.flowchart.terminator;whiteSpace=wrap;" parent="WIyWlLk6GJQsqaUBKTNV-1" vertex="1">
          <mxGeometry x="360" y="120" width="100" height="60" as="geometry" />
        </mxCell>
        <mxCell id="m6FUUC1qz3RMbib5ZkgH-18" value="" style="edgeStyle=orthogonalEdgeStyle;rounded=0;orthogonalLoop=1;jettySize=auto;html=1;" edge="1" parent="WIyWlLk6GJQsqaUBKTNV-1" source="m6FUUC1qz3RMbib5ZkgH-6" target="m6FUUC1qz3RMbib5ZkgH-7">
          <mxGeometry relative="1" as="geometry" />
        </mxCell>
        <mxCell id="m6FUUC1qz3RMbib5ZkgH-22" value="Да" style="edgeLabel;html=1;align=center;verticalAlign=middle;resizable=0;points=[];" vertex="1" connectable="0" parent="m6FUUC1qz3RMbib5ZkgH-18">
          <mxGeometry x="-0.701" y="1" relative="1" as="geometry">
            <mxPoint x="2" y="-19" as="offset" />
          </mxGeometry>
        </mxCell>
        <mxCell id="m6FUUC1qz3RMbib5ZkgH-20" style="edgeStyle=orthogonalEdgeStyle;rounded=0;orthogonalLoop=1;jettySize=auto;html=1;entryX=0.5;entryY=0;entryDx=0;entryDy=0;" edge="1" parent="WIyWlLk6GJQsqaUBKTNV-1" source="m6FUUC1qz3RMbib5ZkgH-6" target="m6FUUC1qz3RMbib5ZkgH-8">
          <mxGeometry relative="1" as="geometry" />
        </mxCell>
        <mxCell id="m6FUUC1qz3RMbib5ZkgH-23" value="Нет" style="edgeLabel;html=1;align=center;verticalAlign=middle;resizable=0;points=[];" vertex="1" connectable="0" parent="m6FUUC1qz3RMbib5ZkgH-20">
          <mxGeometry x="0.1079" y="-1" relative="1" as="geometry">
            <mxPoint x="19" as="offset" />
          </mxGeometry>
        </mxCell>
        <mxCell id="m6FUUC1qz3RMbib5ZkgH-6" value="K &amp;lt; 1 ИЛИ K &amp;gt; A.size()" style="strokeWidth=2;html=1;shape=mxgraph.flowchart.decision;whiteSpace=wrap;" vertex="1" parent="WIyWlLk6GJQsqaUBKTNV-1">
          <mxGeometry x="310" y="-510" width="200" height="60" as="geometry" />
        </mxCell>
        <mxCell id="m6FUUC1qz3RMbib5ZkgH-7" value="Конец (ошибка ввода K)" style="strokeWidth=2;html=1;shape=mxgraph.flowchart.terminator;whiteSpace=wrap;" vertex="1" parent="WIyWlLk6GJQsqaUBKTNV-1">
          <mxGeometry x="590" y="-510" width="100" height="60" as="geometry" />
        </mxCell>
        <mxCell id="m6FUUC1qz3RMbib5ZkgH-8" value="++call_count" style="rounded=1;whiteSpace=wrap;html=1;absoluteArcSize=1;arcSize=14;strokeWidth=2;strokeColor=default;align=center;verticalAlign=middle;fillColor=default;" vertex="1" parent="WIyWlLk6GJQsqaUBKTNV-1">
          <mxGeometry x="310" y="-430" width="200" height="40" as="geometry" />
        </mxCell>
        <mxCell id="m6FUUC1qz3RMbib5ZkgH-24" style="edgeStyle=orthogonalEdgeStyle;rounded=0;orthogonalLoop=1;jettySize=auto;html=1;entryX=0;entryY=0.5;entryDx=0;entryDy=0;" edge="1" parent="WIyWlLk6GJQsqaUBKTNV-1" source="m6FUUC1qz3RMbib5ZkgH-10" target="m6FUUC1qz3RMbib5ZkgH-11">
          <mxGeometry relative="1" as="geometry" />
        </mxCell>
        <mxCell id="m6FUUC1qz3RMbib5ZkgH-25" value="Да" style="edgeLabel;html=1;align=center;verticalAlign=middle;resizable=0;points=[];" vertex="1" connectable="0" parent="m6FUUC1qz3RMbib5ZkgH-24">
          <mxGeometry x="-0.6629" y="-2" relative="1" as="geometry">
            <mxPoint y="-22" as="offset" />
          </mxGeometry>
        </mxCell>
        <mxCell id="m6FUUC1qz3RMbib5ZkgH-26" style="edgeStyle=orthogonalEdgeStyle;rounded=0;orthogonalLoop=1;jettySize=auto;html=1;entryX=0.5;entryY=0;entryDx=0;entryDy=0;" edge="1" parent="WIyWlLk6GJQsqaUBKTNV-1" source="m6FUUC1qz3RMbib5ZkgH-10" target="m6FUUC1qz3RMbib5ZkgH-13">
          <mxGeometry relative="1" as="geometry" />
        </mxCell>
        <mxCell id="m6FUUC1qz3RMbib5ZkgH-27" value="Нет" style="edgeLabel;html=1;align=center;verticalAlign=middle;resizable=0;points=[];" vertex="1" connectable="0" parent="m6FUUC1qz3RMbib5ZkgH-26">
          <mxGeometry x="0.5" y="2" relative="1" as="geometry">
            <mxPoint x="19" y="2" as="offset" />
          </mxGeometry>
        </mxCell>
        <mxCell id="m6FUUC1qz3RMbib5ZkgH-10" value="depth == K + 1" style="strokeWidth=2;html=1;shape=mxgraph.flowchart.decision;whiteSpace=wrap;" vertex="1" parent="WIyWlLk6GJQsqaUBKTNV-1">
          <mxGeometry x="310" y="-370" width="200" height="60" as="geometry" />
        </mxCell>
        <mxCell id="m6FUUC1qz3RMbib5ZkgH-11" value="result.push_back(current);" style="rounded=1;whiteSpace=wrap;html=1;absoluteArcSize=1;arcSize=14;strokeWidth=2;strokeColor=default;align=center;verticalAlign=middle;fillColor=default;" vertex="1" parent="WIyWlLk6GJQsqaUBKTNV-1">
          <mxGeometry x="540" y="-360" width="200" height="40" as="geometry" />
        </mxCell>
        <mxCell id="m6FUUC1qz3RMbib5ZkgH-12" value="Возврат" style="strokeWidth=2;html=1;shape=mxgraph.flowchart.terminator;whiteSpace=wrap;" vertex="1" parent="WIyWlLk6GJQsqaUBKTNV-1">
          <mxGeometry x="590" y="-290" width="100" height="60" as="geometry" />
        </mxCell>
        <mxCell id="m6FUUC1qz3RMbib5ZkgH-13" value="i = 0; i &lt; A.size(); ++i" style="shape=hexagon;perimeter=hexagonPerimeter2;whiteSpace=wrap;html=1;fixedSize=1;strokeColor=default;strokeWidth=2;align=center;verticalAlign=middle;fontFamily=Helvetica;fontSize=12;fontColor=default;fillColor=default;" vertex="1" parent="WIyWlLk6GJQsqaUBKTNV-1">
          <mxGeometry x="310" y="-290" width="200" height="50" as="geometry" />
        </mxCell>
        <mxCell id="m6FUUC1qz3RMbib5ZkgH-30" style="edgeStyle=orthogonalEdgeStyle;rounded=0;orthogonalLoop=1;jettySize=auto;html=1;entryX=0.5;entryY=0;entryDx=0;entryDy=0;" edge="1" parent="WIyWlLk6GJQsqaUBKTNV-1" source="m6FUUC1qz3RMbib5ZkgH-14" target="m6FUUC1qz3RMbib5ZkgH-15">
          <mxGeometry relative="1" as="geometry" />
        </mxCell>
        <mxCell id="m6FUUC1qz3RMbib5ZkgH-31" value="Да" style="edgeLabel;html=1;align=center;verticalAlign=middle;resizable=0;points=[];" vertex="1" connectable="0" parent="m6FUUC1qz3RMbib5ZkgH-30">
          <mxGeometry x="0.0286" y="-1" relative="1" as="geometry">
            <mxPoint x="19" as="offset" />
          </mxGeometry>
        </mxCell>
        <mxCell id="m6FUUC1qz3RMbib5ZkgH-35" style="edgeStyle=orthogonalEdgeStyle;rounded=0;orthogonalLoop=1;jettySize=auto;html=1;" edge="1" parent="WIyWlLk6GJQsqaUBKTNV-1" source="m6FUUC1qz3RMbib5ZkgH-14">
          <mxGeometry relative="1" as="geometry">
            <mxPoint x="240" y="-190" as="targetPoint" />
          </mxGeometry>
        </mxCell>
        <mxCell id="m6FUUC1qz3RMbib5ZkgH-36" value="Нет" style="edgeLabel;html=1;align=center;verticalAlign=middle;resizable=0;points=[];" vertex="1" connectable="0" parent="m6FUUC1qz3RMbib5ZkgH-35">
          <mxGeometry x="-0.5" y="1" relative="1" as="geometry">
            <mxPoint y="-11" as="offset" />
          </mxGeometry>
        </mxCell>
        <mxCell id="m6FUUC1qz3RMbib5ZkgH-14" value="&lt;div&gt;Элемент ещё&lt;/div&gt;&lt;div&gt;не использован?&lt;br&gt;&lt;/div&gt;!used[i]" style="strokeWidth=2;html=1;shape=mxgraph.flowchart.decision;whiteSpace=wrap;" vertex="1" parent="WIyWlLk6GJQsqaUBKTNV-1">
          <mxGeometry x="310" y="-220" width="200" height="60" as="geometry" />
        </mxCell>
        <mxCell id="m6FUUC1qz3RMbib5ZkgH-32" style="edgeStyle=orthogonalEdgeStyle;rounded=0;orthogonalLoop=1;jettySize=auto;html=1;entryX=0.5;entryY=0;entryDx=0;entryDy=0;" edge="1" parent="WIyWlLk6GJQsqaUBKTNV-1" source="m6FUUC1qz3RMbib5ZkgH-15" target="m6FUUC1qz3RMbib5ZkgH-16">
          <mxGeometry relative="1" as="geometry" />
        </mxCell>
        <mxCell id="m6FUUC1qz3RMbib5ZkgH-15" value="used[i] = true;&lt;div&gt;current.push_back(A[i]);&lt;/div&gt;" style="rounded=1;whiteSpace=wrap;html=1;absoluteArcSize=1;arcSize=14;strokeWidth=2;strokeColor=default;align=center;verticalAlign=middle;fillColor=default;" vertex="1" parent="WIyWlLk6GJQsqaUBKTNV-1">
          <mxGeometry x="310" y="-140" width="200" height="60" as="geometry" />
        </mxCell>
        <mxCell id="m6FUUC1qz3RMbib5ZkgH-33" style="edgeStyle=orthogonalEdgeStyle;rounded=0;orthogonalLoop=1;jettySize=auto;html=1;entryX=0.5;entryY=0;entryDx=0;entryDy=0;" edge="1" parent="WIyWlLk6GJQsqaUBKTNV-1" source="m6FUUC1qz3RMbib5ZkgH-16" target="m6FUUC1qz3RMbib5ZkgH-17">
          <mxGeometry relative="1" as="geometry" />
        </mxCell>
        <mxCell id="m6FUUC1qz3RMbib5ZkgH-38" style="edgeStyle=orthogonalEdgeStyle;rounded=0;orthogonalLoop=1;jettySize=auto;html=1;" edge="1" parent="WIyWlLk6GJQsqaUBKTNV-1" source="m6FUUC1qz3RMbib5ZkgH-16">
          <mxGeometry relative="1" as="geometry">
            <mxPoint x="410" y="-530" as="targetPoint" />
            <Array as="points">
              <mxPoint x="200" y="-30" />
              <mxPoint x="200" y="-530" />
            </Array>
          </mxGeometry>
        </mxCell>
        <mxCell id="m6FUUC1qz3RMbib5ZkgH-16" value="calculate(A, current, used,&lt;div&gt;depth + 1, K, result, call_count);&lt;/div&gt;" style="rounded=1;whiteSpace=wrap;html=1;absoluteArcSize=1;arcSize=14;strokeWidth=2;strokeColor=default;align=center;verticalAlign=middle;fillColor=default;" vertex="1" parent="WIyWlLk6GJQsqaUBKTNV-1">
          <mxGeometry x="310" y="-60" width="200" height="60" as="geometry" />
        </mxCell>
        <mxCell id="m6FUUC1qz3RMbib5ZkgH-34" style="edgeStyle=orthogonalEdgeStyle;rounded=0;orthogonalLoop=1;jettySize=auto;html=1;entryX=0;entryY=0.5;entryDx=0;entryDy=0;" edge="1" parent="WIyWlLk6GJQsqaUBKTNV-1" source="m6FUUC1qz3RMbib5ZkgH-17" target="m6FUUC1qz3RMbib5ZkgH-13">
          <mxGeometry relative="1" as="geometry">
            <Array as="points">
              <mxPoint x="240" y="50" />
              <mxPoint x="240" y="-265" />
            </Array>
          </mxGeometry>
        </mxCell>
        <mxCell id="m6FUUC1qz3RMbib5ZkgH-17" value="current.pop_back();&lt;div&gt;used[i] = false;&lt;/div&gt;" style="rounded=1;whiteSpace=wrap;html=1;absoluteArcSize=1;arcSize=14;strokeWidth=2;strokeColor=default;align=center;verticalAlign=middle;fillColor=default;" vertex="1" parent="WIyWlLk6GJQsqaUBKTNV-1">
          <mxGeometry x="310" y="20" width="200" height="60" as="geometry" />
        </mxCell>
        <mxCell id="m6FUUC1qz3RMbib5ZkgH-21" style="edgeStyle=orthogonalEdgeStyle;rounded=0;orthogonalLoop=1;jettySize=auto;html=1;entryX=0.5;entryY=0;entryDx=0;entryDy=0;entryPerimeter=0;" edge="1" parent="WIyWlLk6GJQsqaUBKTNV-1" source="m6FUUC1qz3RMbib5ZkgH-8" target="m6FUUC1qz3RMbib5ZkgH-10">
          <mxGeometry relative="1" as="geometry" />
        </mxCell>
        <mxCell id="m6FUUC1qz3RMbib5ZkgH-28" style="edgeStyle=orthogonalEdgeStyle;rounded=0;orthogonalLoop=1;jettySize=auto;html=1;entryX=0.5;entryY=0;entryDx=0;entryDy=0;entryPerimeter=0;" edge="1" parent="WIyWlLk6GJQsqaUBKTNV-1" source="m6FUUC1qz3RMbib5ZkgH-11" target="m6FUUC1qz3RMbib5ZkgH-12">
          <mxGeometry relative="1" as="geometry" />
        </mxCell>
        <mxCell id="m6FUUC1qz3RMbib5ZkgH-29" style="edgeStyle=orthogonalEdgeStyle;rounded=0;orthogonalLoop=1;jettySize=auto;html=1;entryX=0.5;entryY=0;entryDx=0;entryDy=0;entryPerimeter=0;" edge="1" parent="WIyWlLk6GJQsqaUBKTNV-1" source="m6FUUC1qz3RMbib5ZkgH-13" target="m6FUUC1qz3RMbib5ZkgH-14">
          <mxGeometry relative="1" as="geometry" />
        </mxCell>
        <mxCell id="m6FUUC1qz3RMbib5ZkgH-37" style="edgeStyle=orthogonalEdgeStyle;rounded=0;orthogonalLoop=1;jettySize=auto;html=1;entryX=0.5;entryY=0;entryDx=0;entryDy=0;entryPerimeter=0;" edge="1" parent="WIyWlLk6GJQsqaUBKTNV-1" source="m6FUUC1qz3RMbib5ZkgH-13" target="gohF25LUEKTXvDDzDyy9-20">
          <mxGeometry relative="1" as="geometry">
            <Array as="points">
              <mxPoint x="560" y="-265" />
              <mxPoint x="560" y="100" />
            </Array>
          </mxGeometry>
        </mxCell>
      </root>
    </mxGraphModel>
  </diagram>
</mxfile>
